<svg xmlns="http://www.w3.org/2000/svg" width="50" height="50" viewBox="0 0 50 50">
  <g id="그룹_105" data-name="그룹 105" transform="translate(-650 -3227)">
    <path id="사각형_154" data-name="사각형 154" d="M10,0H50a0,0,0,0,1,0,0V40A10,10,0,0,1,40,50H0a0,0,0,0,1,0,0V10A10,10,0,0,1,10,0Z" transform="translate(650 3227)" fill="rgba(0,0,0,0.5)"/>
    <path id="maximize" d="M9.668,3h-4A2.667,2.667,0,0,0,3,5.667v4m24,0v-4A2.667,2.667,0,0,0,24.337,3h-4m0,24h4A2.667,2.667,0,0,0,27,24.337v-4m-24,0v4A2.667,2.667,0,0,0,5.667,27h4" transform="translate(659.5 3236.5)" fill="none" stroke="#fff" stroke-linecap="round" stroke-linejoin="round" stroke-width="2" opacity="0.8"/>
  </g>
</svg>
